<svg width="64" height="64" viewBox="0 0 64 64" fill="none" xmlns="http://www.w3.org/2000/svg">
  <defs>
    <linearGradient id="security-gradient" x1="0%" y1="0%" x2="100%" y2="100%">
      <stop offset="0%" style="stop-color:#3B82F6;stop-opacity:1" />
      <stop offset="100%" style="stop-color:#1D4ED8;stop-opacity:1" />
    </linearGradient>
    <filter id="security-glow">
      <feGaussianBlur stdDeviation="3" result="coloredBlur"/>
      <feMerge>
        <feMergeNode in="coloredBlur"/>
        <feMergeNode in="SourceGraphic"/>
      </feMerge>
    </filter>
  </defs>
  
  <!-- Outer Shield -->
  <path d="M32 4L8 16V32C8 46.24 18.88 58.64 32 60C45.12 58.64 56 46.24 56 32V16L32 4Z" 
        fill="url(#security-gradient)" 
        fill-opacity="0.1" 
        stroke="url(#security-gradient)" 
        stroke-width="2"/>
  
  <!-- Inner Shield -->
  <path d="M32 10L14 19V32C14 42.48 21.52 51.36 32 52.8C42.48 51.36 50 42.48 50 32V19L32 10Z" 
        fill="url(#security-gradient)" 
        fill-opacity="0.3"/>
  
  <!-- Central Lock -->
  <g filter="url(#security-glow)">
    <rect x="24" y="28" width="16" height="12" rx="2" fill="url(#security-gradient)"/>
    <path d="M28 28V24C28 21.79 29.79 20 32 20C34.21 20 36 21.79 36 24V28" 
          stroke="url(#security-gradient)" 
          stroke-width="3" 
          stroke-linecap="round"
          fill="none"/>
    <circle cx="32" cy="34" r="2" fill="#FFFFFF"/>
  </g>
  
  <!-- Celestial Stars -->
  <circle cx="32" cy="8" r="1" fill="#3B82F6" opacity="0.8">
    <animate attributeName="opacity" values="0.8;0.3;0.8" dur="2s" repeatCount="indefinite"/>
  </circle>
  <circle cx="12" cy="20" r="1" fill="#3B82F6" opacity="0.6">
    <animate attributeName="opacity" values="0.6;0.2;0.6" dur="2.5s" repeatCount="indefinite"/>
  </circle>
  <circle cx="52" cy="20" r="1" fill="#3B82F6" opacity="0.7">
    <animate attributeName="opacity" values="0.7;0.3;0.7" dur="1.8s" repeatCount="indefinite"/>
  </circle>
</svg>