<svg width="64" height="64" viewBox="0 0 64 64" fill="none" xmlns="http://www.w3.org/2000/svg">
  <defs>
    <linearGradient id="integrity-gradient" x1="0%" y1="0%" x2="100%" y2="100%">
      <stop offset="0%" style="stop-color:#DC2626;stop-opacity:1" />
      <stop offset="100%" style="stop-color:#991B1B;stop-opacity:1" />
    </linearGradient>
    <filter id="integrity-glow">
      <feGaussianBlur stdDeviation="3" result="coloredBlur"/>
      <feMerge>
        <feMergeNode in="coloredBlur"/>
        <feMergeNode in="SourceGraphic"/>
      </feMerge>
    </filter>
  </defs>
  
  <!-- Outer Hexagon (Truth Symbol) -->
  <path d="M32 6 L50 16 L50 38 L32 48 L14 38 L14 16 Z" 
        fill="url(#integrity-gradient)" 
        fill-opacity="0.1" 
        stroke="url(#integrity-gradient)" 
        stroke-width="2"/>
  
  <!-- Inner Hexagon -->
  <path d="M32 12 L44 19 L44 35 L32 42 L20 35 L20 19 Z" 
        fill="url(#integrity-gradient)" 
        fill-opacity="0.3"/>
  
  <!-- Central Balance Scale -->
  <g filter="url(#integrity-glow)">
    <!-- Scale Beam -->
    <rect x="16" y="26" width="32" height="2" fill="url(#integrity-gradient)"/>
    
    <!-- Central Pillar -->
    <rect x="31" y="20" width="2" height="16" fill="url(#integrity-gradient)"/>
    
    <!-- Left Pan -->
    <path d="M16 28 L20 36 L24 36 L28 28" 
          stroke="url(#integrity-gradient)" 
          stroke-width="2" 
          fill="none"/>
    
    <!-- Right Pan -->
    <path d="M36 28 L40 36 L44 36 L48 28" 
          stroke="url(#integrity-gradient)" 
          stroke-width="2" 
          fill="none"/>
    
    <!-- Balance Weights -->
    <circle cx="22" cy="34" r="3" fill="url(#integrity-gradient)"/>
    <circle cx="42" cy="34" r="3" fill="url(#integrity-gradient)"/>
  </g>
  
  <!-- Divine Eye (Truth Seeker) -->
  <g transform="translate(32, 54)">
    <ellipse cx="0" cy="0" rx="8" ry="4" 
             fill="none" 
             stroke="url(#integrity-gradient)" 
             stroke-width="1.5"
             opacity="0.8"/>
    <circle cx="0" cy="0" r="2" fill="url(#integrity-gradient)">
      <animate attributeName="r" values="2;3;2" dur="3s" repeatCount="indefinite"/>
    </circle>
  </g>
  
  <!-- Celestial Stars -->
  <circle cx="8" cy="12" r="1" fill="#DC2626" opacity="0.8">
    <animate attributeName="opacity" values="0.8;0.3;0.8" dur="2.2s" repeatCount="indefinite"/>
  </circle>
  <circle cx="56" cy="12" r="1" fill="#DC2626" opacity="0.6">
    <animate attributeName="opacity" values="0.6;0.2;0.6" dur="2.7s" repeatCount="indefinite"/>
  </circle>
  <circle cx="32" cy="4" r="1" fill="#DC2626" opacity="0.7">
    <animate attributeName="opacity" values="0.7;0.3;0.7" dur="1.9s" repeatCount="indefinite"/>
  </circle>
</svg>